<?xml version="1.0" encoding="utf-8"?>
<!-- Generator: Adobe Illustrator 22.0.0, SVG Export Plug-In . SVG Version: 6.00 Build 0)  -->
<svg version="1.1" id="图层_1" xmlns="http://www.w3.org/2000/svg" xmlns:xlink="http://www.w3.org/1999/xlink" x="0px" y="0px"
	 viewBox="0 0 1366 768" style="enable-background:new 0 0 1366 768;" xml:space="preserve">
<style type="text/css">
	.st0{fill:#467CFD;}
	.st1{fill:#8BAEF7;}
	.st2{fill:#6161F7;}
	.st3{font-family:'MicrosoftYaHeiLight';}
	.st4{font-size:36px;}
	.st5{clip-path:url(#SVGID_2_);fill:#2E77ED;}
	.st6{fill:#FFBB12;}
	.st7{fill:#2E77ED;}
	.st8{clip-path:url(#SVGID_4_);fill:#2C2C2C;}
	.st9{fill:#2C2C2C;}
	.st10{clip-path:url(#SVGID_6_);fill:#2966C1;}
	.st11{clip-path:url(#SVGID_6_);fill:#FD9A16;}
	.st12{clip-path:url(#SVGID_8_);fill:#8BAEF7;}
	.st13{clip-path:url(#SVGID_8_);fill:#467CFD;}
	.st14{clip-path:url(#SVGID_10_);fill:#2C2C2C;}
	.st15{fill:#5FB0E5;}
	.st16{fill:#0686D8;}
	.st17{fill:#FFFFFF;}
	.st18{fill:#D2E9F7;}
	.st19{clip-path:url(#SVGID_12_);fill:#0686D8;}
	.st20{clip-path:url(#SVGID_12_);fill:#5FB0E5;}
	.st21{clip-path:url(#SVGID_14_);fill:#FAB001;}
	.st22{clip-path:url(#SVGID_14_);fill:#F9E48A;}
	.st23{fill:#FECE0A;}
	.st24{clip-path:url(#SVGID_16_);fill:#FFFFFF;}
	.st25{clip-path:url(#SVGID_16_);fill:#39AFDA;}
	.st26{fill:#9CE4F3;}
	.st27{fill:#52C5F8;}
	.st28{fill:none;stroke:#457CFD;stroke-width:7;stroke-linecap:round;stroke-miterlimit:10;}
	.st29{fill:#457CFD;stroke:#457CFD;stroke-width:7;stroke-linecap:square;stroke-miterlimit:10;}
	.st30{fill:#FFF3E4;}
</style>
<g>
	<g>
		<path class="st0" d="M154.8,587.7c-2.5-3.7-5.6-6.8-9.3-9.3c-7.9-5.5-17.3-8.4-26.9-8.5c-9.6,0.1-19,3-27,8.5
			c-3.7,2.5-6.8,5.6-9.3,9.3c-2.4,3.5-3.8,7.7-3.8,12c0,4.1,1.3,7.5,3.9,10.1c5.8,6,16.9,6.5,29.1,6.5h10.8
			c13.5,0.1,26.2,0.1,32.6-6.4c2.6-2.6,3.9-6,3.9-10.1C158.5,595.4,157.2,591.3,154.8,587.7L154.8,587.7z M149,604
			c-1.6,1.7-4.9,2.9-9.8,3.5c-5,0.6-10.9,0.6-17.1,0.5h-7.2c-10.8,0-23,0.1-27-4c-0.6-0.7-1.5-1.8-1.5-4.2
			c0-10.7,16.2-21.5,32.1-21.5c8,0.1,15.8,2.5,22.4,7.1c6.1,4.2,9.6,9.5,9.6,14.4C150.5,602.1,149.7,603.3,149,604L149,604z
			 M118.6,563.2c14.5,0,26.3-11.8,26.3-26.3c0-14.5-11.8-26.3-26.3-26.3c-14.5,0-26.3,11.8-26.3,26.3
			C92.3,551.5,104,563.2,118.6,563.2L118.6,563.2z M118.6,518.2c7.6,0,14.4,4.6,17.3,11.6c2.9,7,1.3,15.1-4.1,20.4
			c-5.4,5.4-13.4,7-20.4,4.1c-7-2.9-11.6-9.7-11.6-17.3C99.8,526.6,108.2,518.2,118.6,518.2L118.6,518.2z M118.6,518.2"/>
		<path class="st1" d="M108.7,544.2c2.2,3.3,5.5,4.9,9.8,4.9c4.3,0,7.6-1.7,9.8-4.9c0.5-0.8,0.2-1.8-0.6-2.3
			c-0.8-0.5-1.8-0.3-2.4,0.4c-1.5,2.3-3.7,3.4-6.9,3.4s-5.3-1.1-6.9-3.4c-0.5-0.8-1.6-1-2.4-0.5
			C108.4,542.3,108.2,543.4,108.7,544.2L108.7,544.2z M108.7,544.2"/>
	</g>
	<text transform="matrix(1 0 0 1 82.5127 667.5758)" class="st2 st3 st4">用户</text>
</g>
<g>
	<g>
		<g>
			<defs>
				<rect id="SVGID_1_" x="237.4" y="525.8" width="94.3" height="75.4"/>
			</defs>
			<clipPath id="SVGID_2_">
				<use xlink:href="#SVGID_1_"  style="overflow:visible;"/>
			</clipPath>
			<path class="st5" d="M319.1,525.9c6.8,0,12.5,5.7,12.5,12.5v50.2c0,6.8-5.7,12.5-12.5,12.5h-69.3c-6.8,0.2-12.5-5.4-12.5-12.2
				v-50.4c0-6.8,5.7-12.5,12.5-12.5H319.1z M326.2,588.9v-50.8c0-3.5-3-6.4-6.4-6.4h-70.2c-3.5,0-6.4,3-6.4,6.4v51.1
				c0,3.5,3,6.4,6.4,6.4h70.1C323.2,595.3,326.2,592.6,326.2,588.9L326.2,588.9z M326.2,588.9"/>
		</g>
		<path class="st6" d="M264.6,584.4c-1.6,0-2.8-1.3-2.8-2.9v-24.2c0-1.6,1.3-2.9,2.9-2.9c1.6,0,2.8,1.3,2.8,2.9v24.2
			C267.5,583.1,266.2,584.4,264.6,584.4L264.6,584.4z M264.6,584.4"/>
		<path class="st7" d="M290.6,555.9c0-1.6,1.3-2.8,2.9-2.8h17.1c1.6,0,2.9,1.3,2.9,2.9c0,1.6-1.3,2.8-2.9,2.8h-17.1
			C291.9,558.8,290.6,557.5,290.6,555.9L290.6,555.9z M290.6,581.5c0-1.6,1.3-2.8,2.9-2.8h17.1c1.6,0,2.9,1.3,2.9,2.9
			s-1.3,2.8-2.9,2.8h-17.1C291.9,584.4,290.6,583.1,290.6,581.5L290.6,581.5z M290.6,567.7c0-1.6,1.3-2.8,2.9-2.8h17.1
			c1.6,0,2.9,1.3,2.9,2.9s-1.3,2.8-2.9,2.8h-17.1C291.9,570.6,290.6,569.3,290.6,567.7L290.6,567.7z M290.6,567.7"/>
		<path class="st6" d="M254.2,563.1c-1.1-1.1-1.1-2.9,0-4l8.3-8.4c1.1-1.1,2.9-1.1,4,0c1.1,1.1,1.1,2.9,0,4l-8.3,8.3
			C257.2,564.2,255.4,564.2,254.2,563.1L254.2,563.1z M254.2,563.1"/>
		<path class="st6" d="M262.6,550.7c1.1-1.1,2.9-1.1,4,0l8.3,8.4c1.1,1.1,1.1,2.9,0,4c-1.1,1.1-2.9,1.1-4,0l-8.4-8.3
			C261.5,553.6,261.5,551.8,262.6,550.7L262.6,550.7z M262.6,550.7"/>
	</g>
	<text transform="matrix(1 0 0 1 212.5628 667.5759)" class="st2 st3 st4">报修申请</text>
</g>
<g>
	<g>
		<g>
			<defs>
				<rect id="SVGID_3_" x="399.2" y="518.4" width="95.2" height="90.2"/>
			</defs>
			<clipPath id="SVGID_4_">
				<use xlink:href="#SVGID_3_"  style="overflow:visible;"/>
			</clipPath>
			<path class="st8" d="M449.3,608.4c-10,0-19.7-3.3-27.6-9.6l-22.4,0.7l8-14.9c1-1.9,3.4-2.6,5.3-1.6c1.9,1,2.6,3.4,1.6,5.3
				l-1.7,3.1l11.9-0.4l1.1,0.9c8.7,7.3,20,10.2,31.1,8c20.1-4,33.3-23.6,29.3-43.7c-4-20.1-23.5-33.3-43.7-29.3
				c-18,3.5-30.6,19.4-30,37.7c0.1,2.1-1.6,3.9-3.7,4c-2.1,0.1-3.9-1.6-4-3.7c-0.8-22.1,14.5-41.3,36.3-45.6
				c24.4-4.8,48,11.1,52.8,35.4c4.8,24.3-11.1,48-35.4,52.8C455.1,608.1,452.2,608.4,449.3,608.4L449.3,608.4z M449.3,608.4"/>
		</g>
		<path class="st9" d="M449.5,564.4l-15.9-13.6c-1.6-1.4-1.8-3.8-0.4-5.5c1.4-1.6,3.8-1.8,5.5-0.4l11.1,9.4l12.1-9.5
			c1.7-1.3,4.1-1,5.4,0.6c1.3,1.7,1,4.1-0.6,5.4L449.5,564.4z M449.5,564.4"/>
		<path class="st9" d="M449.6,585.2c-2.1,0-3.9-1.7-3.9-3.9v-21.4c0-2.1,1.7-3.9,3.9-3.9c2.1,0,3.9,1.7,3.9,3.9v21.4
			C453.5,583.5,451.7,585.2,449.6,585.2L449.6,585.2z M449.6,585.2"/>
		<path class="st9" d="M460.8,577.5H438c-2.1,0-3.9-1.7-3.9-3.9s1.7-3.9,3.9-3.9h22.9c2.1,0,3.9,1.7,3.9,3.9
			C464.7,575.7,463,577.5,460.8,577.5L460.8,577.5z M461,567.8h-22.9c-2.1,0-3.9-1.7-3.9-3.9c0-2.1,1.7-3.9,3.9-3.9H461
			c2.1,0,3.9,1.7,3.9,3.9C464.9,566.1,463.1,567.8,461,567.8L461,567.8z M461,567.8"/>
	</g>
	<text transform="matrix(1 0 0 1 410.804 667.5759)" class="st2 st3 st4">付款</text>
</g>
<g>
	<g>
		<g>
			<defs>
				<rect id="SVGID_5_" x="564.9" y="516.2" width="84.5" height="94.5"/>
			</defs>
			<clipPath id="SVGID_6_">
				<use xlink:href="#SVGID_5_"  style="overflow:visible;"/>
			</clipPath>
			<path class="st10" d="M608.3,610.6h-32.9c-5.8,0-10.6-4.7-10.6-10.6v-73.3c0-5.8,4.7-10.6,10.6-10.6h63.4
				c5.8,0,10.6,4.7,10.6,10.6v47.6c0,1.7-1.4,3.2-3.2,3.2c-1.7,0-3.2-1.4-3.2-3.2v-47.6c0-2.3-1.9-4.2-4.3-4.2h-63.4
				c-2.3,0-4.2,1.9-4.3,4.2v73.3c0,2.3,1.9,4.2,4.3,4.2h32.9c1.1,0,2.2,0.6,2.8,1.6c0.6,1,0.6,2.2,0,3.2
				C610.5,610,609.5,610.6,608.3,610.6L608.3,610.6z M624.8,541h-38.3c-1.7,0-3.2-1.4-3.2-3.2c0-1.7,1.4-3.2,3.2-3.2h38.3
				c1.7,0,3.2,1.4,3.2,3.2C627.9,539.6,626.5,541,624.8,541L624.8,541z M624.8,560.1h-38.3c-1.7,0-3.2-1.4-3.2-3.2
				c0-1.7,1.4-3.2,3.2-3.2h38.3c1.7,0,3.2,1.4,3.2,3.2C627.9,558.7,626.5,560.1,624.8,560.1L624.8,560.1z M611.4,579.1h-24.9
				c-1.1,0-2.2-0.6-2.8-1.6c-0.6-1-0.6-2.2,0-3.2c0.6-1,1.6-1.6,2.8-1.6h24.9c1.7,0,3.2,1.4,3.2,3.2
				C614.6,577.6,613.2,579.1,611.4,579.1L611.4,579.1z M611.4,579.1"/>
			<path class="st11" d="M625.5,610.6c-1.5,0-2.9-0.6-4-1.7l-9.6-9.7c-1.2-1.2-1.2-3.3,0-4.5c0.6-0.6,1.4-0.9,2.2-0.9
				c0.8,0,1.6,0.3,2.2,0.9l9.1,9.2l18.2-18.2c0.6-0.6,1.4-0.9,2.2-0.9c0.8,0,1.6,0.3,2.2,0.9c1.2,1.3,1.2,3.3,0,4.5L629.5,609
				C628.4,610,627,610.6,625.5,610.6L625.5,610.6z M625.5,610.6"/>
		</g>
	</g>
	<text transform="matrix(1 0 0 1 535.1696 667.5759)" class="st2 st3 st4">申请确认</text>
</g>
<g>
	<g>
		<g>
			<defs>
				<rect id="SVGID_7_" x="740.2" y="520.1" width="84.6" height="86.8"/>
			</defs>
			<clipPath id="SVGID_8_">
				<use xlink:href="#SVGID_7_"  style="overflow:visible;"/>
			</clipPath>
			<path class="st12" d="M824.2,577c-1-2-3-3.3-5.3-3.2h-13.1c0.5-0.9,0.6-1.9,0.4-2.9c-0.3-1.9-1.6-3.6-3.4-4.4
				c-2.2-0.9-4.7-0.5-6.5,1l-1.1,0.9c-2,1.7-4,3.4-5.9,5.2H785c-1.2,0-2.2,1-2.1,2.3V597c0,0.6,0.3,1.1,0.7,1.6
				c0.4,0.4,1,0.6,1.5,0.6h4.6c0.3,0.2,0.7,0.3,1,0.5c0.4,0.3,0.9,0.5,1.3,0.7l0.9,0.6c0.5,0.2,1,0.3,1.5,0.3h12.4l-0.1,0
				c0.4-0.1,0.8-0.2,1.2-0.4c2.6-0.4,4.4-2.8,4.1-5.4c0-0.1,0-0.2-0.1-0.3c0-0.1-0.1-0.2-0.1-0.3c1.1-0.5,2-1.5,2.3-2.7
				c0.4-1.3,0.4-2.7-0.2-3.9c0.8-1,1.2-2.2,1.2-3.5h3.5c0.6,0.1,1.2,0,1.8-0.2c1.7-0.4,3-1.5,3.7-3.1
				C824.9,580,824.9,578.4,824.2,577L824.2,577z M820.7,579.4c-0.3,0.5-0.8,0.8-1.4,1h0c-0.2,0.2-0.5,0.2-0.8,0.2h-7l-1.1,1.9l0.6,1
				c0,0.1,0.1,0.1,0.1,0.2c0.2,0.4,0.2,0.9,0.1,1.3c-0.1,0.4-0.4,0.8-0.9,1l-0.7,0.6l-0.2,1.9l0.6,0.6c0.4,0.4,0.6,1.1,0.3,1.6
				c-0.3,0.6-0.8,1-1.5,1.2l-1,0.4l-0.6,1.9l0.6,0.8c0.2,0.2,0.3,0.4,0.3,0.6c0.1,0.7-0.4,1.4-1.1,1.5c-0.1,0-0.2,0.1-0.3,0.1h0v0
				c-0.1,0.1-0.4,0.1-0.5,0.1h-11.5l-1.1-0.6c-0.5-0.2-1-0.5-1.5-0.8c-0.3-0.2-0.6-0.3-0.9-0.5c-0.5-0.2-1.1-0.3-1.6-0.3h-3v-17.9
				h2.9c0.7,0.1,1.5-0.2,2-0.7c1.1-0.9,2.1-1.8,3.1-2.7c1.4-1.2,2.8-2.4,4.2-3.7c0.5-0.7,1.5-0.9,2.3-0.5c0.7,0.5,1.2,0.9,1.2,1.3
				c0.1,0.6-0.2,1.1-0.6,1.4l-0.2,0.2c-1.5,1-2.1,2-1.6,3.2c0.5,0.8,1.3,1.3,2.2,1.3h16.7c1.1,0,1.7,0.3,2,1.2
				C820.9,578.7,820.9,579.1,820.7,579.4L820.7,579.4z M820.7,579.4"/>
			<path class="st13" d="M777.1,601.1h-29.3c-0.5,0-1-0.3-1.3-0.7c-0.5-0.6-0.7-1.4-0.6-2.2c2.5-18.6,16.8-32.7,33.6-33.4
				c0.4,0,0.8,0,1.2,0c12.4,0,22.4-11.3,22.4-22.4c0-10.7-7.6-19.9-18.1-22c-10.5-2.1-21,3.6-25.1,13.5c-4.1,9.9-0.5,21.3,8.4,27.2
				c-5.5,1.9-10.4,5-14.6,9c-7.3,7.1-12.1,16.7-13.5,27.2c-0.3,2.4,0.4,4.8,2,6.7c1.4,1.6,3.5,2.6,5.6,2.6h29.3
				c1.6,0,2.9-1.3,2.9-2.9C780,602.3,778.7,601,777.1,601.1L777.1,601.1z M764.1,542.5c0-6.7,4-12.7,10.2-15.3
				c6.2-2.6,13.3-1.1,18,3.6c4.7,4.7,6.1,11.9,3.6,18.1c-2.6,6.2-8.6,10.2-15.3,10.2C771.5,559,764.2,551.6,764.1,542.5L764.1,542.5
				z M764.1,542.5"/>
		</g>
	</g>
	<text transform="matrix(1 0 0 1 710.4435 667.576)" class="st2 st3 st4">指派任务</text>
</g>
<g>
	<g>
		<g>
			<defs>
				<rect id="SVGID_9_" x="919.3" y="513.8" width="50.1" height="99.4"/>
			</defs>
			<clipPath id="SVGID_10_">
				<use xlink:href="#SVGID_9_"  style="overflow:visible;"/>
			</clipPath>
			<path class="st14" d="M957.7,514.9l-1.6-1v27l-11.7,7.8l-11.7-7.8v-27l-1.6,1c-8.1,5.1-12.6,14.4-11.5,24
				c1.1,9.5,7.5,17.6,16.6,20.8l1.4,0.5v-2.6h13.9v2.6l1.4-0.5c9.1-3.2,15.5-11.3,16.6-20.8C970.3,529.3,965.9,520,957.7,514.9
				L957.7,514.9z M957.7,514.9"/>
		</g>
		<path class="st9" d="M954.4,555.7c-6.7-4.6-13.4-4.6-20.1,0l-0.6,0.4l0.1,0.7c0.1,0.7,0.3,1.4,0.4,2.2c1.3,7.2,2.1,14.6,2.4,21.9
			l0.2,11.4c0,1.2-0.1,2.5-0.1,3.7v0.6l0.5,0.3c0.4,0.3,0.8,0.5,1.2,0.8l0.5,0.3l0.5-0.3c3-1.7,6.7-1.7,9.8,0l0.5,0.3l0.5-0.3
			c0.4-0.2,0.8-0.5,1.2-0.8l0.5-0.3v-0.6c0-1.2-0.1-2.5-0.1-3.7l0.2-11.5c0.3-7.3,1.2-14.7,2.4-21.9c0.1-0.7,0.3-1.4,0.4-2.2
			l0.1-0.7L954.4,555.7z M954.4,555.7"/>
		<path class="st9" d="M944.4,613.1c-5.6,0-10.1-4.5-10.1-10.1c0-5.6,4.5-10.1,10.1-10.1c5.6,0,10.1,4.5,10.1,10.1
			c0,2.7-1.1,5.3-3,7.2C949.6,612,947,613.1,944.4,613.1L944.4,613.1z M944.4,598.1c-1.9,0-3.7,1.2-4.4,3c-0.7,1.8-0.3,3.9,1,5.2
			c1.4,1.4,3.4,1.8,5.2,1c1.8-0.7,3-2.5,3-4.4C949.2,600.3,947,598.1,944.4,598.1L944.4,598.1z M944.4,598.1"/>
	</g>
	<text transform="matrix(1 0 0 1 908.3622 667.5758)" class="st2 st3 st4">维修</text>
</g>
<g>
	<g>
		<path class="st15" d="M1151.7,515.9c0,1.3-0.8,2.5-2,3c-1.2,0.5-2.6,0.2-3.6-0.7c-0.9-0.9-1.2-2.3-0.7-3.6c0.5-1.2,1.7-2,3-2
			C1150.2,512.6,1151.7,514.1,1151.7,515.9L1151.7,515.9z M1145.7,533.8c0,0.7-0.4,1.3-1,1.5c-0.6,0.3-1.3,0.1-1.8-0.4
			c-0.5-0.5-0.6-1.2-0.4-1.8c0.3-0.6,0.9-1,1.5-1C1145,532.1,1145.7,532.9,1145.7,533.8L1145.7,533.8z M1145.7,533.8"/>
		<path class="st15" d="M1072,544.3h85c1.6,0,2.4,0.8,2.4,2.4v59.7c0,1.6-0.8,2.4-2.4,2.4h-85c-1.6,0-2.4-0.8-2.4-2.4v-59.7
			C1069.6,545.1,1070.4,544.3,1072,544.3L1072,544.3z M1072,544.3"/>
		<path class="st16" d="M1157.3,610.7h-85.4c-2.2,0-4-1.8-4.1-4v-60.1c0-2.2,1.8-4.1,4.1-4.1h13.6v3.7h-13.6c-0.2,0-0.4,0.2-0.4,0.4
			v60.1c0,0.2,0.2,0.4,0.4,0.4h85.4c0.2,0,0.4-0.2,0.4-0.4v-60.1c0-0.2-0.2-0.4-0.4-0.4h-12.4v-3.7h12.4c2.2,0,4.1,1.8,4.1,4.1v60.1
			C1161.3,608.9,1159.5,610.7,1157.3,610.7L1157.3,610.7z M1157.3,610.7"/>
		<rect x="1074" y="549.4" class="st17" width="80.7" height="52.4"/>
		<path class="st18" d="M1157.9,612.5h-87.7c-2.1,0-3.9-1.5-4.2-3.6l-0.6-3.8h40.7l1.6,2.2h11.2l1.7-2.2h42.8l-0.5,3.3
			C1162.3,610.7,1160.3,612.5,1157.9,612.5L1157.9,612.5z M1157.9,612.5"/>
		<g>
			<defs>
				<rect id="SVGID_11_" x="1061.3" y="512.5" width="104.2" height="101.9"/>
			</defs>
			<clipPath id="SVGID_12_">
				<use xlink:href="#SVGID_11_"  style="overflow:visible;"/>
			</clipPath>
			<path class="st19" d="M1157.9,614.3h-87.7c-3,0-5.6-2.1-6-5.1l-1-6h43.8l1.6,2.2h9.4l1.7-2.2h45.9l-0.9,5.4
				C1164,611.9,1161.2,614.3,1157.9,614.3L1157.9,614.3z M1067.5,606.9l0.3,1.7c0.2,1.2,1.2,2.1,2.4,2.1h87.7c1.5,0,2.8-1.1,3-2.6
				l0.2-1.2h-39.8l-1.7,2.2h-13.1l-1.6-2.2L1067.5,606.9z M1067.5,606.9"/>
			<path class="st20" d="M1085.1,515.9c0,1.3-0.8,2.4-1.9,2.9c-1.2,0.5-2.5,0.2-3.4-0.7c-0.9-0.9-1.2-2.3-0.7-3.4
				c0.5-1.2,1.6-1.9,2.9-1.9C1083.7,512.8,1085.1,514.2,1085.1,515.9L1085.1,515.9z M1085.1,535.4c0,0.9-0.7,1.6-1.6,1.6
				c-0.9,0-1.6-0.7-1.6-1.6c0-0.9,0.7-1.6,1.6-1.6c0.4,0,0.8,0.2,1.1,0.5C1084.9,534.6,1085.1,535,1085.1,535.4L1085.1,535.4z
				 M1163.7,529.8c0,0.8-0.5,1.5-1.2,1.8c-0.7,0.3-1.6,0.1-2.1-0.4c-0.6-0.6-0.7-1.4-0.4-2.1c0.3-0.7,1-1.2,1.8-1.2
				c0.5,0,1,0.2,1.4,0.6C1163.5,528.8,1163.7,529.3,1163.7,529.8L1163.7,529.8z M1069.4,526.2c0,1.6-1,3.1-2.5,3.7
				c-1.5,0.6-3.2,0.3-4.4-0.9c-1.2-1.2-1.5-2.9-0.9-4.4c0.6-1.5,2.1-2.5,3.7-2.5C1067.5,522.1,1069.3,523.9,1069.4,526.2
				L1069.4,526.2z M1069.4,526.2"/>
		</g>
		<path class="st18" d="M1110.9,567.6c8.6,1.3,17.2-2,22.6-8.8c5.4-6.8,6.8-15.9,3.7-24c-3.1-8.1-10.4-13.9-18.9-15.2
			c-8.6-1.3-17.2,2-22.6,8.8c-5.4,6.8-6.8,15.9-3.7,24C1095.1,560.5,1102.3,566.3,1110.9,567.6L1110.9,567.6z M1110.9,567.6"/>
		<path class="st16" d="M1094.2,534.1l-3.3-1.6c1.4-2.9,3.2-5.5,5.5-7.7l2.5,2.6C1097,529.4,1095.4,531.6,1094.2,534.1L1094.2,534.1
			z M1094.2,534.1"/>
		<path class="st16" d="M1114.6,569.7c-14.4,0-26.1-11.7-26.1-26.1h3.7c0,10.1,6.8,19,16.5,21.6c9.8,2.7,20.1-1.5,25.2-10.2
			c5.1-8.7,3.8-19.8-3.2-27c-7-7.3-18.1-8.9-26.9-4l-1.8-3.2c9.5-5.3,21.4-4,29.6,3.1c8.3,7.1,11.2,18.6,7.4,28.8
			C1135.2,562.9,1125.5,569.7,1114.6,569.7L1114.6,569.7z M1114.6,569.7"/>
		<path class="st17" d="M1129.2,543.6c0,5.9-3.6,11.3-9,13.5c-5.5,2.3-11.8,1-16-3.2c-4.2-4.2-5.4-10.5-3.2-16c2.3-5.5,7.6-9,13.5-9
			c3.9,0,7.6,1.5,10.4,4.3C1127.7,536,1129.2,539.7,1129.2,543.6L1129.2,543.6z M1129.2,543.6"/>
		<path class="st16" d="M1111.3,551.9l-9.1-9.1l2.6-2.6l6.5,6.5l12.9-12.9l2.6,2.6L1111.3,551.9z M1111.3,551.9"/>
		<rect x="1080.2" y="560.7" class="st16" width="12.4" height="3.7"/>
		<rect x="1080.2" y="570.9" class="st16" width="63" height="3.7"/>
		<rect x="1080.2" y="581.1" class="st16" width="63" height="3.7"/>
		<rect x="1080.2" y="591.3" class="st16" width="35" height="3.7"/>
	</g>
	<text transform="matrix(1 0 0 1 1077.4072 667.5765)" class="st2 st3 st4">完成</text>
</g>
<g>
	<g>
		<g>
			<defs>
				<rect id="SVGID_13_" x="1225.2" y="517.5" width="93.6" height="92"/>
			</defs>
			<clipPath id="SVGID_14_">
				<use xlink:href="#SVGID_13_"  style="overflow:visible;"/>
			</clipPath>
			<path class="st21" d="M1270.3,517.5h-32.8c-6.8,0-12.3,5.5-12.3,12.3v67.3c0,6.8,5.5,12.3,12.3,12.3h50c6.8,0,12.3-5.5,12.3-12.3
				v-50.3c0-3.3-1.3-6.5-3.7-8.8l-17.3-17C1276.6,518.8,1273.5,517.5,1270.3,517.5L1270.3,517.5z M1270.3,517.5"/>
			<path class="st22" d="M1229.4,533.8c0-6.8,5.5-12.3,12.3-12.3h32.8c2.5,0,5,0.8,7,2.2l-3.6-3.5c-2.2-1.7-4.9-2.7-7.7-2.7h-32.8
				c-6.8,0-12.3,5.5-12.3,12.3v67.3c0,2.1,0.5,4,1.4,5.8c1,0.5,2,0.8,3.1,1c-0.2-0.9-0.3-1.8-0.3-2.8V533.8z M1229.4,533.8"/>
		</g>
		<path class="st23" d="M1282.1,604.1c6.8,0,12.3-5.5,12.3-12.3v-50.3c0-3.3-1.3-6.5-3.7-8.8l-9.2-9c-2.1-1.4-4.5-2.2-7-2.2h-32.8
			c-6.8,0-12.3,5.5-12.3,12.3V601c0,1,0.1,1.9,0.3,2.8c0.7,0.1,1.5,0.2,2.3,0.2L1282.1,604.1L1282.1,604.1z M1282.1,604.1"/>
		<g>
			<defs>
				<rect id="SVGID_15_" x="1225.2" y="517.5" width="93.6" height="92"/>
			</defs>
			<clipPath id="SVGID_16_">
				<use xlink:href="#SVGID_15_"  style="overflow:visible;"/>
			</clipPath>
			<path class="st24" d="M1269.6,549.5h-32.4c-0.2,0-0.3-0.1-0.3-0.3v-5c0-0.2,0.1-0.3,0.3-0.3h32.4c0.2,0,0.3,0.1,0.3,0.3v5
				C1269.9,549.3,1269.7,549.5,1269.6,549.5L1269.6,549.5z M1269.6,567.5h-32.4c-0.2,0-0.3-0.1-0.3-0.3v-5c0-0.2,0.1-0.3,0.3-0.3
				h32.4c0.2,0,0.3,0.1,0.3,0.3v5C1269.9,567.4,1269.7,567.5,1269.6,567.5L1269.6,567.5z M1269.6,584h-32.4c-0.2,0-0.3-0.1-0.3-0.3
				v-5c0-0.2,0.1-0.3,0.3-0.3h32.4c0.2,0,0.3,0.1,0.3,0.3v5C1269.9,583.9,1269.7,584,1269.6,584L1269.6,584z M1269.6,584"/>
			<path class="st25" d="M1303.2,535.4l-33.9,57.7c-0.2,0.4-0.4,0.9-0.4,1.4l-0.1,12.1c0,2.1,2.3,3.4,4.1,2.4l10.5-5.9
				c0.4-0.2,0.8-0.6,1-1l33.9-57.7c0.8-1.3,0.3-3-1-3.8l-10.4-6.2C1305.7,533.7,1304,534.1,1303.2,535.4L1303.2,535.4z
				 M1303.2,535.4"/>
		</g>
		<path class="st26" d="M1282.2,599.1l33.9-57.7c0.3-0.4,0.4-0.9,0.4-1.4l-9.5-5.6c-1.3-0.8-3-0.3-3.8,1l-33.9,57.7
			c-0.2,0.4-0.4,0.9-0.4,1.4l-0.1,11.9c0.6,0.1,1.2,0,1.8-0.3l10.5-5.9C1281.6,599.9,1282,599.6,1282.2,599.1L1282.2,599.1z
			 M1282.2,599.1"/>
		<path class="st26" d="M1282.2,599.1l33.9-57.7c0.3-0.4,0.4-0.9,0.4-1.4l-9.5-5.6c-1.3-0.8-3-0.3-3.8,1l-33.9,57.7
			c-0.2,0.4-0.4,0.9-0.4,1.4l-0.1,11.9c0.6,0.1,1.2,0,1.8-0.3l10.5-5.9C1281.6,599.9,1282,599.6,1282.2,599.1L1282.2,599.1z
			 M1282.2,599.1"/>
		<path class="st27" d="M1308.1,539.6c-1.3-0.8-3-0.3-3.8,1.1l-35.3,60.1l0,5.5c0.6,0.1,1.2,0,1.8-0.3l10.5-5.9c0.4-0.2,0.8-0.6,1-1
			l32.6-55.6L1308.1,539.6z M1308.1,539.6"/>
	</g>
	<text transform="matrix(1 0 0 1 1236.0223 667.5759)" class="st2 st3 st4">评价</text>
</g>
<line class="st28" x1="119.5" y1="498.5" x2="119.5" y2="348.5"/>
<line class="st28" x1="1257.5" y1="498.5" x2="1257.5" y2="348.5"/>
<g>
	<line class="st28" x1="118.9" y1="348.4" x2="1256.9" y2="348.4"/>
	<rect x="509.9" y="283.4" class="st29" width="356" height="130"/>
	<text transform="matrix(1 0 0 1 615.9167 359.0479)" class="st30 st3 st4">报修流程</text>
</g>
</svg>
