<?xml version="1.0" encoding="utf-8"?>
<!-- Generator: Adobe Illustrator 16.0.0, SVG Export Plug-In . SVG Version: 6.00 Build 0)  -->
<!DOCTYPE svg PUBLIC "-//W3C//DTD SVG 1.1//EN" "http://www.w3.org/Graphics/SVG/1.1/DTD/svg11.dtd">
<svg version="1.1" id="图层_1" xmlns="http://www.w3.org/2000/svg" xmlns:xlink="http://www.w3.org/1999/xlink" x="0px" y="0px"
	 width="925px" height="211px" viewBox="-120.5 0 925 211" enable-background="new -120.5 0 925 211" xml:space="preserve">
<g>
	<g>
		<path fill="#467CFD" d="M-35.646,150.712c-1.12-1.657-2.509-3.047-4.167-4.167c-3.54-2.464-7.751-3.764-12.052-3.809
			c-4.301,0.045-8.513,1.345-12.097,3.809c-1.658,1.12-3.047,2.51-4.167,4.167c-1.076,1.567-1.703,3.449-1.703,5.376
			c0,1.837,0.583,3.36,1.747,4.525c2.599,2.688,7.572,2.912,13.038,2.912h4.839c6.048,0.044,11.738,0.044,14.605-2.868
			c1.165-1.164,1.747-2.688,1.747-4.524C-33.988,154.161-34.571,152.324-35.646,150.712L-35.646,150.712z M-38.245,158.015
			c-0.717,0.762-2.195,1.299-4.391,1.566c-2.24,0.271-4.883,0.271-7.661,0.226h-3.226c-4.839,0-10.305,0.045-12.097-1.792
			c-0.269-0.313-0.672-0.808-0.672-1.883c0-4.794,7.258-9.633,14.382-9.633c3.584,0.045,7.079,1.12,10.036,3.182
			c2.733,1.882,4.301,4.257,4.301,6.451C-37.572,157.163-37.931,157.701-38.245,158.015L-38.245,158.015z M-51.864,139.735
			c6.496,0,11.783-5.287,11.783-11.783s-5.287-11.783-11.783-11.783c-6.497,0-11.783,5.287-11.783,11.783
			C-63.647,134.493-58.406,139.735-51.864,139.735L-51.864,139.735z M-51.864,119.574c3.405,0,6.451,2.061,7.75,5.197
			c1.299,3.136,0.583,6.765-1.837,9.14c-2.419,2.419-6.003,3.136-9.14,1.837c-3.136-1.3-5.197-4.347-5.197-7.751
			C-60.287,123.337-56.524,119.574-51.864,119.574L-51.864,119.574z"/>
		<path fill="#8BAEF7" d="M-56.3,131.223c0.986,1.479,2.464,2.194,4.391,2.194c1.926,0,3.405-0.762,4.391-2.194
			c0.224-0.358,0.089-0.808-0.269-1.03c-0.358-0.226-0.806-0.135-1.075,0.179c-0.672,1.03-1.658,1.523-3.091,1.523
			s-2.375-0.493-3.091-1.523c-0.224-0.357-0.717-0.448-1.075-0.224C-56.434,130.371-56.524,130.864-56.3,131.223L-56.3,131.223z"/>
	</g>
	<text transform="matrix(1 0 0 1 -68.0332 186.4971)" fill="#6161F7" font-family="'MicrosoftYaHeiLight'" font-size="16.1288">用户</text>
</g>
<g>
	<g>
		<g>
			<g>
				<g>
					<defs>
						<rect id="SVGID_1_" x="43.801" y="122.979" width="42.249" height="33.78"/>
					</defs>
					<clipPath id="SVGID_2_">
						<use xlink:href="#SVGID_1_"  overflow="visible"/>
					</clipPath>
					<path clip-path="url(#SVGID_2_)" fill="#2E77ED" d="M80.404,123.023c3.046,0,5.6,2.554,5.6,5.601v22.491
						c0,3.046-2.554,5.6-5.6,5.6H49.356c-3.046,0.091-5.601-2.419-5.601-5.466v-22.58c0-3.047,2.555-5.601,5.601-5.601h31.048
						V123.023z M83.585,151.249v-22.76c0-1.567-1.344-2.867-2.867-2.867h-31.45c-1.568,0-2.867,1.345-2.867,2.867v22.895
						c0,1.568,1.344,2.867,2.867,2.867h31.405C82.241,154.116,83.585,152.907,83.585,151.249L83.585,151.249z"/>
				</g>
			</g>
		</g>
		<path fill="#FFBB12" d="M55.987,149.233c-0.717,0-1.254-0.583-1.254-1.3v-10.843c0-0.717,0.583-1.3,1.299-1.3
			s1.254,0.583,1.254,1.3v10.843C57.286,148.65,56.704,149.233,55.987,149.233L55.987,149.233z"/>
		<path fill="#2E77ED" d="M67.636,136.465c0-0.717,0.582-1.255,1.3-1.255h7.66c0.718,0,1.3,0.582,1.3,1.299
			c0,0.718-0.583,1.256-1.3,1.256h-7.66C68.218,137.764,67.636,137.182,67.636,136.465L67.636,136.465z M67.636,147.934
			c0-0.718,0.582-1.254,1.3-1.254h7.66c0.718,0,1.3,0.581,1.3,1.299c0,0.717-0.583,1.255-1.3,1.255h-7.66
			C68.218,149.233,67.636,148.65,67.636,147.934L67.636,147.934z M67.636,141.751c0-0.717,0.582-1.254,1.3-1.254h7.66
			c0.718,0,1.3,0.582,1.3,1.299c0,0.718-0.583,1.255-1.3,1.255h-7.66C68.218,143.051,67.636,142.468,67.636,141.751L67.636,141.751z
			"/>
		<path fill="#FFBB12" d="M51.328,139.69c-0.493-0.493-0.493-1.3,0-1.792l3.718-3.765c0.493-0.492,1.299-0.492,1.792,0
			c0.493,0.493,0.493,1.3,0,1.792l-3.719,3.72C52.671,140.183,51.865,140.183,51.328,139.69L51.328,139.69z"/>
		<path fill="#FFBB12" d="M55.091,134.135c0.493-0.492,1.3-0.492,1.792,0l3.72,3.765c0.492,0.492,0.492,1.299,0,1.792
			c-0.493,0.492-1.3,0.492-1.792,0l-3.765-3.719C54.599,135.434,54.599,134.628,55.091,134.135L55.091,134.135z"/>
	</g>
	<text transform="matrix(1 0 0 1 32.6724 186.4971)" fill="#6161F7" font-family="'MicrosoftYaHeiLight'" font-size="16.1288">报修申请</text>
</g>
<g>
	<g>
		<g>
			<g>
				<g>
					<defs>
						<rect id="SVGID_3_" x="160.378" y="119.663" width="42.652" height="40.412"/>
					</defs>
					<clipPath id="SVGID_4_">
						<use xlink:href="#SVGID_3_"  overflow="visible"/>
					</clipPath>
					<path clip-path="url(#SVGID_4_)" fill="#2C2C2C" d="M182.824,159.985c-4.48,0-8.826-1.479-12.365-4.301l-10.036,0.313
						l3.584-6.676c0.448-0.852,1.523-1.164,2.375-0.717c0.851,0.447,1.165,1.522,0.717,2.375l-0.762,1.389l5.332-0.179l0.493,0.402
						c3.898,3.271,8.96,4.569,13.934,3.585c9.005-1.793,14.919-10.573,13.127-19.579s-10.528-14.919-19.579-13.127
						c-8.064,1.567-13.709,8.69-13.44,16.891c0.045,0.939-0.717,1.747-1.658,1.792s-1.747-0.717-1.792-1.657
						c-0.358-9.901,6.496-18.504,16.263-20.431c10.932-2.15,21.505,4.974,23.656,15.859c2.15,10.888-4.973,21.506-15.86,23.655
						C185.423,159.852,184.124,159.985,182.824,159.985L182.824,159.985z"/>
				</g>
			</g>
		</g>
		<path fill="#2C2C2C" d="M182.915,140.272l-7.124-6.093c-0.717-0.628-0.807-1.702-0.179-2.465c0.627-0.717,1.702-0.807,2.464-0.18
			l4.973,4.212l5.421-4.257c0.762-0.582,1.837-0.448,2.419,0.269c0.583,0.763,0.448,1.838-0.269,2.421L182.915,140.272z"/>
		<path fill="#2C2C2C" d="M182.958,149.592c-0.94,0-1.747-0.762-1.747-1.747v-9.588c0-0.94,0.762-1.748,1.747-1.748
			c0.941,0,1.748,0.763,1.748,1.748v9.588C184.707,148.83,183.899,149.592,182.958,149.592L182.958,149.592z"/>
		<path fill="#2C2C2C" d="M187.977,146.142h-10.215c-0.941,0-1.748-0.763-1.748-1.747c0-0.985,0.762-1.747,1.748-1.747h10.26
			c0.941,0,1.747,0.762,1.747,1.747C189.723,145.335,188.962,146.142,187.977,146.142L187.977,146.142z M188.066,141.796h-10.259
			c-0.941,0-1.748-0.762-1.748-1.747c0-0.94,0.762-1.747,1.748-1.747h10.259c0.941,0,1.748,0.762,1.748,1.747
			C189.813,141.034,189.006,141.796,188.066,141.796L188.066,141.796z"/>
	</g>
	<text transform="matrix(1 0 0 1 165.5771 186.4971)" fill="#6161F7" font-family="'MicrosoftYaHeiLight'" font-size="16.1288">付款</text>
</g>
<g>
	<g>
		<g>
			<g>
				<g>
					<defs>
						<rect id="SVGID_5_" x="279.541" y="118.679" width="37.858" height="42.339"/>
					</defs>
					<clipPath id="SVGID_6_">
						<use xlink:href="#SVGID_5_"  overflow="visible"/>
					</clipPath>
					<path clip-path="url(#SVGID_6_)" fill="#2966C1" d="M298.986,160.972h-14.74c-2.598,0-4.749-2.106-4.749-4.749v-32.842
						c0-2.599,2.106-4.749,4.749-4.749h28.405c2.599,0,4.749,2.106,4.749,4.749v21.326c0,0.762-0.627,1.435-1.434,1.435
						c-0.763,0-1.435-0.627-1.435-1.435v-21.326c0-1.029-0.852-1.882-1.927-1.882h-28.404c-1.031,0-1.882,0.853-1.927,1.882v32.842
						c0,1.029,0.852,1.881,1.927,1.881h14.74c0.493,0,0.986,0.27,1.254,0.718c0.27,0.447,0.27,0.985,0,1.434
						C299.973,160.702,299.523,160.972,298.986,160.972L298.986,160.972z M306.378,129.789H289.22c-0.763,0-1.435-0.627-1.435-1.434
						c0-0.763,0.627-1.435,1.435-1.435h17.158c0.763,0,1.435,0.627,1.435,1.435C307.768,129.162,307.141,129.789,306.378,129.789
						L306.378,129.789z M306.378,138.345H289.22c-0.763,0-1.435-0.627-1.435-1.434c0-0.762,0.627-1.434,1.435-1.434h17.158
						c0.763,0,1.435,0.628,1.435,1.434C307.768,137.719,307.141,138.345,306.378,138.345L306.378,138.345z M300.374,146.858h-11.155
						c-0.493,0-0.985-0.27-1.255-0.717c-0.269-0.448-0.269-0.985,0-1.435c0.27-0.448,0.718-0.717,1.255-0.717h11.155
						c0.763,0,1.435,0.627,1.435,1.434C301.809,146.187,301.182,146.858,300.374,146.858L300.374,146.858z"/>
				</g>
			</g>
			<g>
				<g>
					<defs>
						<rect id="SVGID_7_" x="279.541" y="118.679" width="37.858" height="42.339"/>
					</defs>
					<clipPath id="SVGID_8_">
						<use xlink:href="#SVGID_7_"  overflow="visible"/>
					</clipPath>
					<path clip-path="url(#SVGID_8_)" fill="#FD9A16" d="M306.692,160.972c-0.672,0-1.299-0.271-1.792-0.763l-4.301-4.346
						c-0.538-0.538-0.538-1.479,0-2.017c0.269-0.27,0.627-0.403,0.985-0.403c0.359,0,0.718,0.135,0.985,0.403l4.077,4.121
						l8.154-8.153c0.269-0.27,0.627-0.403,0.985-0.403c0.359,0,0.717,0.135,0.986,0.403c0.538,0.582,0.538,1.479,0,2.017
						l-8.289,8.423C307.991,160.702,307.364,160.972,306.692,160.972L306.692,160.972z"/>
				</g>
			</g>
		</g>
	</g>
	<text transform="matrix(1 0 0 1 266.2207 186.4971)" fill="#6161F7" font-family="'MicrosoftYaHeiLight'" font-size="16.1288">申请确认</text>
</g>
<g>
	<g>
		<g>
			<g>
				<g>
					<defs>
						<rect id="SVGID_9_" x="396.327" y="120.425" width="37.902" height="38.89"/>
					</defs>
					<clipPath id="SVGID_10_">
						<use xlink:href="#SVGID_9_"  overflow="visible"/>
					</clipPath>
					<path clip-path="url(#SVGID_10_)" fill="#8BAEF7" d="M433.961,145.918c-0.448-0.896-1.344-1.479-2.374-1.434h-5.869
						c0.225-0.403,0.27-0.853,0.18-1.3c-0.135-0.852-0.717-1.612-1.523-1.972c-0.984-0.402-2.104-0.225-2.912,0.447l-0.492,0.403
						c-0.896,0.762-1.792,1.522-2.644,2.33h-1.927c-0.537,0-0.985,0.447-0.94,1.029v9.453c0,0.271,0.134,0.493,0.313,0.717
						c0.179,0.181,0.447,0.271,0.672,0.271h2.061c0.136,0.089,0.314,0.134,0.448,0.224c0.18,0.136,0.403,0.225,0.583,0.313
						l0.403,0.269c0.224,0.09,0.446,0.136,0.672,0.136h5.555h-0.044c0.179-0.046,0.358-0.091,0.537-0.181
						c1.165-0.179,1.972-1.254,1.837-2.419c0-0.045,0-0.09-0.045-0.135c0-0.044-0.045-0.089-0.045-0.134
						c0.493-0.226,0.896-0.672,1.031-1.21c0.179-0.582,0.179-1.21-0.091-1.747c0.358-0.448,0.537-0.985,0.537-1.568h1.568
						c0.269,0.045,0.538,0,0.807-0.09c0.763-0.179,1.345-0.672,1.657-1.389C434.274,147.263,434.274,146.545,433.961,145.918
						L433.961,145.918z M432.393,146.993c-0.135,0.224-0.358,0.358-0.627,0.448l0,0c-0.091,0.089-0.225,0.089-0.358,0.089h-3.136
						l-0.493,0.852l0.269,0.448c0,0.045,0.045,0.045,0.045,0.09c0.091,0.18,0.091,0.403,0.046,0.582
						c-0.046,0.18-0.18,0.358-0.403,0.448l-0.313,0.269l-0.09,0.853l0.27,0.269c0.18,0.18,0.27,0.493,0.135,0.718
						c-0.135,0.269-0.358,0.447-0.672,0.537l-0.448,0.18l-0.269,0.852l0.269,0.358c0.09,0.089,0.135,0.179,0.135,0.269
						c0.045,0.313-0.18,0.627-0.493,0.672c-0.045,0-0.09,0.045-0.134,0.045l0,0l0,0c-0.045,0.046-0.18,0.046-0.225,0.046h-5.152
						l-0.492-0.27c-0.225-0.09-0.447-0.225-0.673-0.357c-0.134-0.091-0.269-0.136-0.402-0.226c-0.225-0.09-0.492-0.134-0.717-0.134
						h-1.345v-8.021h1.3c0.313,0.046,0.672-0.089,0.896-0.313c0.493-0.403,0.94-0.806,1.389-1.209
						c0.628-0.538,1.255-1.075,1.882-1.658c0.226-0.313,0.672-0.403,1.03-0.224c0.313,0.224,0.538,0.402,0.538,0.582
						c0.045,0.269-0.09,0.493-0.27,0.627l-0.09,0.09c-0.672,0.448-0.939,0.896-0.717,1.434c0.224,0.358,0.582,0.583,0.985,0.583
						h7.481c0.492,0,0.762,0.135,0.896,0.537C432.482,146.68,432.482,146.858,432.393,146.993L432.393,146.993z"/>
				</g>
			</g>
			<g>
				<g>
					<defs>
						<rect id="SVGID_11_" x="396.327" y="120.425" width="37.902" height="38.89"/>
					</defs>
					<clipPath id="SVGID_12_">
						<use xlink:href="#SVGID_11_"  overflow="visible"/>
					</clipPath>
					<path clip-path="url(#SVGID_12_)" fill="#467CFD" d="M412.859,156.715h-13.127c-0.226,0-0.448-0.134-0.583-0.313
						c-0.225-0.27-0.313-0.627-0.27-0.985c1.12-8.333,7.526-14.649,15.055-14.964c0.179,0,0.357,0,0.536,0
						c5.557,0,10.036-5.063,10.036-10.036c0-4.794-3.404-8.916-8.108-9.855c-4.704-0.94-9.408,1.612-11.245,6.048
						s-0.225,9.543,3.764,12.187c-2.465,0.853-4.66,2.24-6.541,4.032c-3.271,3.181-5.422,7.482-6.049,12.188
						c-0.135,1.074,0.18,2.149,0.896,3.002c0.627,0.717,1.566,1.164,2.509,1.164h13.127c0.717,0,1.299-0.582,1.299-1.3
						C414.158,157.253,413.576,156.67,412.859,156.715L412.859,156.715z M407.035,130.461c0-3.002,1.792-5.688,4.569-6.854
						s5.959-0.493,8.063,1.611c2.105,2.106,2.733,5.332,1.613,8.109c-1.165,2.778-3.854,4.57-6.854,4.57
						C410.351,137.854,407.08,134.538,407.035,130.461L407.035,130.461z"/>
				</g>
			</g>
		</g>
	</g>
	<text transform="matrix(1 0 0 1 382.9951 186.4971)" fill="#6161F7" font-family="'MicrosoftYaHeiLight'" font-size="16.1288">指派任务</text>
</g>
<g>
	<g>
		<g>
			<g>
				<g>
					<defs>
						<rect id="SVGID_13_" x="520.799" y="117.603" width="22.445" height="44.532"/>
					</defs>
					<clipPath id="SVGID_14_">
						<use xlink:href="#SVGID_13_"  overflow="visible"/>
					</clipPath>
					<path clip-path="url(#SVGID_14_)" fill="#2C2C2C" d="M538.004,118.095l-0.717-0.447v12.097l-5.242,3.494l-5.242-3.494v-12.097
						l-0.717,0.447c-3.629,2.285-5.646,6.451-5.152,10.753c0.492,4.257,3.359,7.886,7.438,9.318l0.627,0.225v-1.165h6.229v1.165
						l0.627-0.225c4.078-1.434,6.945-5.063,7.438-9.318C543.648,124.547,541.678,120.381,538.004,118.095L538.004,118.095z"/>
				</g>
			</g>
		</g>
		<path fill="#2C2C2C" d="M536.525,136.375c-3.002-2.062-6.004-2.062-9.006,0l-0.27,0.179l0.045,0.314
			c0.045,0.313,0.135,0.627,0.18,0.985c0.582,3.226,0.941,6.541,1.076,9.812l0.088,5.107c0,0.538-0.043,1.12-0.043,1.658v0.269
			l0.223,0.134c0.18,0.135,0.359,0.226,0.537,0.358l0.227,0.135l0.223-0.135c1.346-0.761,3.002-0.761,4.391,0l0.227,0.135
			l0.223-0.135c0.18-0.089,0.359-0.225,0.539-0.358l0.223-0.134v-0.269c0-0.538-0.045-1.12-0.045-1.658l0.09-5.152
			c0.135-3.271,0.537-6.586,1.076-9.812c0.045-0.313,0.135-0.628,0.18-0.985l0.045-0.314L536.525,136.375z"/>
		<path fill="#2C2C2C" d="M532.045,162.092c-2.51,0-4.525-2.017-4.525-4.524s2.018-4.525,4.525-4.525s4.523,2.018,4.523,4.525
			c0,1.21-0.492,2.374-1.344,3.226C534.375,161.599,533.209,162.092,532.045,162.092L532.045,162.092z M532.045,155.371
			c-0.854,0-1.658,0.537-1.973,1.344c-0.313,0.808-0.135,1.747,0.447,2.33c0.627,0.627,1.523,0.808,2.33,0.448
			c0.807-0.314,1.344-1.12,1.344-1.972C534.195,156.356,533.209,155.371,532.045,155.371L532.045,155.371z"/>
	</g>
	<text transform="matrix(1 0 0 1 515.8984 186.4971)" fill="#6161F7" font-family="'MicrosoftYaHeiLight'" font-size="16.1288">维修</text>
</g>
<g>
	<g>
		<path fill="#5FB0E5" d="M665.96,118.544c0,0.582-0.358,1.119-0.896,1.345c-0.538,0.224-1.165,0.09-1.613-0.313
			c-0.402-0.403-0.536-1.03-0.313-1.613c0.224-0.537,0.762-0.896,1.344-0.896C665.288,117.065,665.96,117.737,665.96,118.544
			L665.96,118.544z M663.272,126.563c0,0.313-0.18,0.582-0.447,0.672c-0.27,0.134-0.584,0.045-0.808-0.18s-0.269-0.537-0.179-0.808
			c0.134-0.269,0.402-0.447,0.672-0.447C662.958,125.802,663.272,126.16,663.272,126.563L663.272,126.563z"/>
		<path fill="#5FB0E5" d="M630.253,131.268h38.082c0.717,0,1.075,0.357,1.075,1.074v26.747c0,0.718-0.358,1.075-1.075,1.075h-38.082
			c-0.717,0-1.075-0.357-1.075-1.075v-26.747C629.178,131.626,629.536,131.268,630.253,131.268L630.253,131.268z"/>
		<path fill="#0686D8" d="M668.47,161.017h-38.262c-0.985,0-1.792-0.808-1.837-1.793v-26.927c0-0.984,0.807-1.837,1.837-1.837h6.093
			v1.657h-6.093c-0.09,0-0.181,0.09-0.181,0.18v26.927c0,0.09,0.091,0.18,0.181,0.18h38.262c0.089,0,0.179-0.09,0.179-0.18v-26.927
			c0-0.09-0.09-0.18-0.179-0.18h-5.556v-1.657h5.556c0.985,0,1.836,0.808,1.836,1.837v26.927
			C670.262,160.21,669.455,161.017,668.47,161.017L668.47,161.017z"/>
		<rect x="631.148" y="133.554" fill="#FFFFFF" width="36.156" height="23.476"/>
		<path fill="#D2E9F7" d="M668.738,161.822h-39.292c-0.939,0-1.746-0.672-1.882-1.612l-0.269-1.703h18.233l0.718,0.986h5.018
			l0.762-0.986h19.177l-0.225,1.479C670.709,161.017,669.813,161.822,668.738,161.822L668.738,161.822z"/>
		<g>
			<g>
				<g>
					<defs>
						<rect id="SVGID_15_" x="625.459" y="117.021" width="46.684" height="45.652"/>
					</defs>
					<clipPath id="SVGID_16_">
						<use xlink:href="#SVGID_15_"  overflow="visible"/>
					</clipPath>
					<path clip-path="url(#SVGID_16_)" fill="#0686D8" d="M668.738,162.629h-39.292c-1.344,0-2.509-0.939-2.688-2.285l-0.447-2.688
						h19.623l0.717,0.985h4.212l0.763-0.985h20.563l-0.402,2.419C671.471,161.554,670.217,162.629,668.738,162.629L668.738,162.629z
						 M628.236,159.313l0.136,0.762c0.09,0.538,0.538,0.941,1.074,0.941h39.292c0.673,0,1.255-0.493,1.345-1.165l0.09-0.538h-17.831
						l-0.762,0.984h-5.869l-0.717-0.984H628.236z"/>
				</g>
			</g>
			<g>
				<g>
					<defs>
						<rect id="SVGID_17_" x="625.459" y="117.021" width="46.684" height="45.652"/>
					</defs>
					<clipPath id="SVGID_18_">
						<use xlink:href="#SVGID_17_"  overflow="visible"/>
					</clipPath>
					<path clip-path="url(#SVGID_18_)" fill="#5FB0E5" d="M636.122,118.544c0,0.582-0.358,1.075-0.853,1.299
						c-0.537,0.225-1.12,0.091-1.522-0.313c-0.403-0.403-0.537-1.03-0.313-1.523c0.226-0.537,0.717-0.852,1.3-0.852
						C635.495,117.154,636.122,117.782,636.122,118.544L636.122,118.544z M636.122,127.28c0,0.403-0.313,0.717-0.718,0.717
						c-0.403,0-0.717-0.313-0.717-0.717s0.313-0.717,0.717-0.717c0.18,0,0.358,0.089,0.492,0.224
						C636.032,126.922,636.122,127.101,636.122,127.28L636.122,127.28z M671.337,124.771c0,0.357-0.226,0.672-0.538,0.806
						c-0.313,0.135-0.717,0.045-0.94-0.179c-0.27-0.27-0.313-0.628-0.18-0.941c0.135-0.313,0.448-0.537,0.807-0.537
						c0.225,0,0.448,0.09,0.627,0.27C671.247,124.323,671.337,124.547,671.337,124.771L671.337,124.771z M629.088,123.158
						c0,0.717-0.448,1.389-1.12,1.657c-0.672,0.27-1.434,0.135-1.971-0.402c-0.538-0.538-0.674-1.3-0.403-1.972
						c0.269-0.672,0.939-1.12,1.657-1.12C628.236,121.321,629.043,122.128,629.088,123.158L629.088,123.158z"/>
				</g>
			</g>
		</g>
		<path fill="#D2E9F7" d="M647.681,141.706c3.854,0.583,7.706-0.896,10.126-3.941c2.419-3.048,3.046-7.124,1.657-10.754
			c-1.389-3.629-4.659-6.228-8.468-6.81c-3.854-0.582-7.706,0.896-10.125,3.942c-2.42,3.047-3.048,7.124-1.658,10.753
			S643.828,141.124,647.681,141.706L647.681,141.706z"/>
		<path fill="#0686D8" d="M640.199,126.697l-1.479-0.717c0.627-1.299,1.434-2.464,2.464-3.449l1.12,1.164
			C641.453,124.592,640.736,125.577,640.199,126.697L640.199,126.697z"/>
		<path fill="#0686D8" d="M649.339,142.647c-6.452,0-11.693-5.242-11.693-11.693h1.657c0,4.524,3.047,8.512,7.393,9.677
			c4.392,1.21,9.005-0.672,11.29-4.568c2.285-3.898,1.702-8.871-1.434-12.098c-3.136-3.271-8.109-3.986-12.052-1.792l-0.808-1.434
			c4.256-2.375,9.588-1.793,13.263,1.389c3.719,3.182,5.018,8.333,3.314,12.902C658.567,139.601,654.222,142.647,649.339,142.647
			L649.339,142.647z"/>
		<path fill="#FFFFFF" d="M655.88,130.954c0,2.644-1.613,5.063-4.032,6.048c-2.464,1.03-5.287,0.448-7.169-1.434
			c-1.881-1.882-2.419-4.704-1.434-7.168c1.03-2.465,3.404-4.032,6.049-4.032c1.747,0,3.404,0.672,4.658,1.926
			C655.208,127.549,655.88,129.206,655.88,130.954L655.88,130.954z"/>
		<path fill="#0686D8" d="M647.86,134.673l-4.076-4.076l1.164-1.165l2.912,2.911l5.779-5.778l1.165,1.164L647.86,134.673z"/>
		<rect x="633.927" y="138.615" fill="#0686D8" width="5.556" height="1.657"/>
		<rect x="633.927" y="143.185" fill="#0686D8" width="28.226" height="1.657"/>
		<rect x="633.927" y="147.755" fill="#0686D8" width="28.226" height="1.657"/>
		<rect x="633.927" y="152.324" fill="#0686D8" width="15.681" height="1.658"/>
	</g>
	<text transform="matrix(1 0 0 1 632.6748 186.4971)" fill="#6161F7" font-family="'MicrosoftYaHeiLight'" font-size="16.1288">完成</text>
</g>
<g>
	<g>
		<g>
			<g>
				<g>
					<defs>
						<rect id="SVGID_19_" x="720.923" y="119.261" width="41.936" height="41.219"/>
					</defs>
					<clipPath id="SVGID_20_">
						<use xlink:href="#SVGID_19_"  overflow="visible"/>
					</clipPath>
					<path clip-path="url(#SVGID_20_)" fill="#FAB001" d="M741.129,119.261h-14.695c-3.046,0-5.511,2.465-5.511,5.512v30.15
						c0,3.047,2.465,5.512,5.511,5.512h22.401c3.047,0,5.511-2.465,5.511-5.512v-22.534c0-1.479-0.582-2.912-1.657-3.943
						l-7.751-7.616C743.951,119.843,742.563,119.261,741.129,119.261L741.129,119.261z"/>
				</g>
			</g>
			<g>
				<g>
					<defs>
						<rect id="SVGID_21_" x="720.923" y="119.261" width="41.936" height="41.219"/>
					</defs>
					<clipPath id="SVGID_22_">
						<use xlink:href="#SVGID_21_"  overflow="visible"/>
					</clipPath>
					<path clip-path="url(#SVGID_22_)" fill="#F9E48A" d="M722.805,126.563c0-3.047,2.464-5.512,5.511-5.512h14.695
						c1.12,0,2.24,0.358,3.137,0.985l-1.612-1.567c-0.985-0.763-2.195-1.21-3.45-1.21h-14.694c-3.047,0-5.512,2.465-5.512,5.512
						v30.15c0,0.941,0.225,1.792,0.628,2.6c0.448,0.224,0.896,0.357,1.389,0.447c-0.09-0.402-0.135-0.807-0.135-1.255v-30.15
						H722.805L722.805,126.563z"/>
				</g>
			</g>
		</g>
		<path fill="#FECE0A" d="M746.416,158.06c3.046,0,5.511-2.466,5.511-5.512v-22.535c0-1.479-0.583-2.912-1.658-3.942l-4.121-4.032
			c-0.94-0.627-2.017-0.984-3.137-0.984h-14.695c-3.047,0-5.511,2.464-5.511,5.511v30.105c0,0.448,0.045,0.853,0.135,1.255
			c0.313,0.045,0.673,0.091,1.03,0.091L746.416,158.06L746.416,158.06z"/>
		<g>
			<g>
				<g>
					<defs>
						<rect id="SVGID_23_" x="720.923" y="119.261" width="41.936" height="41.219"/>
					</defs>
					<clipPath id="SVGID_24_">
						<use xlink:href="#SVGID_23_"  overflow="visible"/>
					</clipPath>
					<path clip-path="url(#SVGID_24_)" fill="#FFFFFF" d="M740.815,133.597H726.3c-0.09,0-0.135-0.045-0.135-0.135v-2.239
						c0-0.091,0.045-0.136,0.135-0.136h14.516c0.091,0,0.136,0.045,0.136,0.136v2.239
						C740.95,133.508,740.86,133.597,740.815,133.597L740.815,133.597z M740.815,141.661H726.3c-0.09,0-0.135-0.045-0.135-0.134
						v-2.24c0-0.09,0.045-0.135,0.135-0.135h14.516c0.091,0,0.136,0.045,0.136,0.135v2.24
						C740.95,141.616,740.86,141.661,740.815,141.661L740.815,141.661z M740.815,149.054H726.3c-0.09,0-0.135-0.046-0.135-0.135
						v-2.239c0-0.091,0.045-0.136,0.135-0.136h14.516c0.091,0,0.136,0.045,0.136,0.136v2.239
						C740.95,149.009,740.86,149.054,740.815,149.054L740.815,149.054z"/>
				</g>
			</g>
			<g>
				<g>
					<defs>
						<rect id="SVGID_25_" x="720.923" y="119.261" width="41.936" height="41.219"/>
					</defs>
					<clipPath id="SVGID_26_">
						<use xlink:href="#SVGID_25_"  overflow="visible"/>
					</clipPath>
					<path clip-path="url(#SVGID_26_)" fill="#39AFDA" d="M755.869,127.28l-15.188,25.851c-0.089,0.181-0.179,0.403-0.179,0.627
						l-0.045,5.423c0,0.939,1.03,1.521,1.837,1.074l4.704-2.644c0.18-0.09,0.357-0.27,0.448-0.448l15.188-25.851
						c0.358-0.583,0.135-1.346-0.447-1.703l-4.66-2.777C756.989,126.519,756.228,126.697,755.869,127.28L755.869,127.28z"/>
				</g>
			</g>
		</g>
		<path fill="#9CE4F3" d="M746.461,155.819l15.188-25.853c0.136-0.179,0.181-0.402,0.181-0.627l-4.257-2.509
			c-0.582-0.357-1.345-0.135-1.702,0.448l-15.188,25.851c-0.089,0.181-0.179,0.403-0.179,0.627l-0.045,5.332
			c0.269,0.045,0.537,0,0.807-0.135l4.704-2.644C746.192,156.179,746.371,156.043,746.461,155.819L746.461,155.819z"/>
		<path fill="#9CE4F3" d="M746.461,155.819l15.188-25.853c0.136-0.179,0.181-0.402,0.181-0.627l-4.257-2.509
			c-0.582-0.357-1.345-0.135-1.702,0.448l-15.188,25.851c-0.089,0.181-0.179,0.403-0.179,0.627l-0.045,5.332
			c0.269,0.045,0.537,0,0.807-0.135l4.704-2.644C746.192,156.179,746.371,156.043,746.461,155.819L746.461,155.819z"/>
		<path fill="#52C5F8" d="M758.064,129.162c-0.583-0.357-1.344-0.135-1.701,0.492l-15.815,26.927v2.464
			c0.269,0.045,0.537,0,0.806-0.135l4.705-2.644c0.18-0.09,0.358-0.27,0.447-0.447l14.605-24.91L758.064,129.162z"/>
	</g>
	<text transform="matrix(1 0 0 1 725.7715 186.4971)" fill="#6161F7" font-family="'MicrosoftYaHeiLight'" font-size="16.1288">评价</text>
</g>
<line fill="none" stroke="#457CFD" stroke-width="7" stroke-linecap="round" stroke-miterlimit="10" x1="-51.917" y1="105.5" x2="-51.917" y2="46.002"/>
<line fill="none" stroke="#457CFD" stroke-width="7" stroke-linecap="round" stroke-miterlimit="10" x1="735.395" y1="105.5" x2="735.395" y2="46.234"/>
<line fill="none" stroke="#457CFD" stroke-width="7" stroke-linecap="round" stroke-miterlimit="10" x1="-51.844" y1="46.002" x2="735.395" y2="46.002"/>
<rect x="218.639" y="16.882" fill="#457CFD" stroke="#457CFD" stroke-width="7" stroke-linecap="square" stroke-miterlimit="10" width="246.272" height="58.242"/>
<text transform="matrix(1.0112 0 0 1 289.4775 53.0479)" fill="#FFF3E4" font-family="'MicrosoftYaHeiLight'" font-size="24.6283">报修流程</text>
<g>
	<polygon fill="#1B99C2" points="108.114,180.256 124.305,178.459 122.378,174.928 131.583,180.256 	"/>
	<polygon fill="#1B99C2" points="108.114,180.256 124.305,182.053 122.378,185.584 131.583,180.256 	"/>
</g>
<g>
	<polygon fill="#1B99C2" points="224.888,180.082 241.08,178.227 239.153,174.58 248.357,180.082 	"/>
	<polygon fill="#1B99C2" points="224.888,180.082 241.08,181.938 239.153,185.584 248.357,180.082 	"/>
</g>
<g>
	<polygon fill="#1B99C2" points="341.662,180.256 357.854,178.459 355.928,174.928 365.131,180.256 	"/>
	<polygon fill="#1B99C2" points="341.662,180.256 357.854,182.053 355.928,185.584 365.131,180.256 	"/>
</g>
<g>
	<polygon fill="#1B99C2" points="458.437,180.256 474.628,178.459 472.702,174.928 481.905,180.256 	"/>
	<polygon fill="#1B99C2" points="458.437,180.256 474.628,182.053 472.702,185.584 481.905,180.256 	"/>
</g>
<g>
	<polygon fill="#1B99C2" points="575.211,180.256 591.402,178.459 589.477,174.928 598.68,180.256 	"/>
	<polygon fill="#1B99C2" points="575.211,180.256 591.402,182.053 589.477,185.584 598.68,180.256 	"/>
</g>
<g>
	<polygon fill="#1B99C2" points="691.985,180.256 708.177,178.459 706.252,174.928 715.454,180.256 	"/>
	<polygon fill="#1B99C2" points="691.985,180.256 708.177,182.053 706.252,185.584 715.454,180.256 	"/>
</g>
<g>
	<polygon fill="#1B99C2" points="-8.661,180.256 7.531,178.459 5.604,174.928 14.809,180.256 	"/>
	<polygon fill="#1B99C2" points="-8.661,180.256 7.531,182.053 5.604,185.584 14.809,180.256 	"/>
</g>
</svg>
