<?xml version="1.0" standalone="no"?><!DOCTYPE svg PUBLIC "-//W3C//DTD SVG 1.1//EN" "http://www.w3.org/Graphics/SVG/1.1/DTD/svg11.dtd"><svg t="1586842042572" class="icon" viewBox="0 0 1024 1024" version="1.1" xmlns="http://www.w3.org/2000/svg" p-id="1864" xmlns:xlink="http://www.w3.org/1999/xlink" width="48" height="48"><defs><style type="text/css"></style></defs><path d="M514.953846 4.529231C234.929231 4.529231 5.907692 233.550769 5.907692 513.575385s229.021538 509.046154 509.046154 509.046153S1024 793.6 1024 513.575385 794.978462 4.529231 514.953846 4.529231z m248.123077 738.067692c0 9.452308-6.301538 15.950769-15.950769 15.950769s-15.950769-6.301538-15.950769-15.950769V284.553846c0-3.150769-3.150769-6.301538-6.301539-6.301538h-413.538461c-3.150769 0-6.301538 3.150769-6.301539 6.301538v458.043077c0 3.150769 0 6.301538 3.150769 6.301539l194.166154-140.012308c6.301538-3.150769 15.950769-3.150769 25.403077 0l76.406154 41.353846-12.8-79.556923c-3.150769-9.452308 0-19.101538 6.301538-25.403077l57.304616-57.304615-79.556923-12.8c-9.452308-3.150769-19.101538-6.301538-22.252308-15.95077L514.953846 385.969231l-31.901538 69.907692c-6.301538 9.452308-12.8 15.950769-22.252308 15.950769l-79.556923 12.8 57.304615 57.304616c6.301538 6.301538 6.301538 15.950769 0 22.252307-6.301538 6.301538-15.950769 6.301538-22.252307 0l-63.606154-60.455384c-6.301538-6.301538-9.452308-19.101538-6.301539-28.553846 3.150769-9.452308 12.8-19.101538 22.252308-19.101539l82.707692-12.8 38.203077-76.406154c6.301538-9.452308 15.950769-15.950769 25.403077-15.950769 9.452308 0 19.101538 6.301538 25.403077 15.950769l38.203077 76.406154 79.556923 15.950769c9.452308 0 19.101538 9.452308 22.252308 19.101539 3.150769 9.452308 3.150769 22.252308-6.301539 28.553846l-60.455384 60.455385 12.8 82.707692c0 12.8-3.150769 22.252308-12.8 28.553846-6.301538 6.301538-19.101538 6.301538-28.553846 0l-73.255385-38.203077-194.166154 140.012308c-3.150769 0-3.150769 3.150769-6.301538 3.150769h-6.301539c-22.252308 0-38.203077-19.101538-38.203077-38.203077V287.704615c0-22.252308 19.101538-38.203077 38.203077-38.203077h413.538462c22.252308 0 38.203077 15.950769 44.504615 35.052308v458.043077z" fill="#8a8a8a" p-id="1865"></path></svg>