<?xml version="1.0" standalone="no"?><!DOCTYPE svg PUBLIC "-//W3C//DTD SVG 1.1//EN" "http://www.w3.org/Graphics/SVG/1.1/DTD/svg11.dtd"><svg t="1586841279955" class="icon" viewBox="0 0 1024 1024" version="1.1" xmlns="http://www.w3.org/2000/svg" p-id="971" width="48" height="48" xmlns:xlink="http://www.w3.org/1999/xlink"><defs><style type="text/css"></style></defs><path d="M341.7 691.1c-47.7 0-94-12.8-134.7-37.1-8.4 1.9-22.1 5.9-32 8.8-15.9 4.6-32.4 9.4-46.4 12.4-14.5 3.1-41.4 8.8-57-11.2-11.9-15.2-8.2-34.2-2.2-57.6 4.1-16 10.2-35.4 15.5-52.5 3.6-11.5 8.2-26.3 10.4-34.5-10.7-29-16.1-59.4-16.1-90.6 0-70.1 27.3-136 76.9-185.6 49.6-49.6 115.5-76.9 185.6-76.9s136 27.3 185.6 76.9c49.6 49.6 76.9 115.5 76.9 185.6s-27.3 136-76.9 185.6c-49.6 49.4-115.5 76.7-185.6 76.7z m-213.9-51.5z m84.9-50.7c7.8 0 14.1 1.8 20.3 5.8 32.3 21.2 69.9 32.4 108.7 32.4 109.4 0 198.4-89 198.4-198.4s-89-198.4-198.4-198.4-198.4 89-198.4 198.4c0 25.9 4.9 51 14.6 74.8 5.6 13.8 2.3 24.5-11.8 69.5-2.9 9.3-7 22.3-10.5 34.5 7.9-2.2 15.7-4.4 21.6-6.1 26.2-7.7 42.8-12.5 55.5-12.5zM748.3 947.2c-110.2 0-199.8-89.6-199.8-199.8s89.6-199.8 199.8-199.8c110.2 0 199.8 89.6 199.8 199.8 0 22.8-3.8 45.1-11.3 66.4 1.7 6 4.5 15 6.7 22.2 3.9 12.6 8.4 26.8 11.4 38.6 4.8 18.7 7.9 35.3-3.2 49.5-14.7 18.8-38.7 13.7-50.2 11.3-10.5-2.2-22.6-5.8-34.4-9.1-5.9-1.7-13.8-4-19.6-5.5-30 17.3-64.1 26.4-99.2 26.4z m147-45.6z m-147-290c-74.9 0-135.8 60.9-135.8 135.8s60.9 135.8 135.8 135.8c26.6 0 52.3-7.7 74.4-22.2 13.5-8.8 28.5-5.3 37.5-3.1 7.2 1.7 15.8 4.2 24.9 6.8 0.1 0 0.3 0.1 0.4 0.1-1.1-3.6-2.2-7-3.1-9.8-2.8-8.9-5.4-17.3-7.3-24.1-2.7-9.7-5.8-20.7-1-32.4 6.6-16.2 10-33.4 10-51.2 0-74.8-61-135.7-135.8-135.7z m185.1 211.1z" fill="#8a8a8a" p-id="972"></path><path d="M380 391.6H224c-17.6 0-32-14.4-32-32s14.4-32 32-32h156c17.6 0 32 14.4 32 32s-14.4 32-32 32zM445.9 504.2H224c-17.6 0-32-14.4-32-32v-7.6c0-17.6 14.4-32 32-32h221.9c17.6 0 32 14.4 32 32v7.6c0 17.6-14.4 32-32 32zM766.6 723.1h-76.4c-17.6 0-32-14.4-32-32s14.4-32 32-32h76.4c17.6 0 32 14.4 32 32s-14.4 32-32 32zM808.6 835.7H690.2c-17.6 0-32-14.4-32-32v-7.6c0-17.6 14.4-32 32-32h118.4c17.6 0 32 14.4 32 32v7.6c0 17.6-14.4 32-32 32zM823.8 470.5c-44.7 0-81-36.3-81-81s36.3-81 81-81 81 36.3 81 81-36.3 81-81 81z m0-110c-16 0-29 13-29 29s13 29 29 29 29-13 29-29-13-29-29-29zM390.2 871.3c-23.8 0-43.2-19.4-43.2-43.2s19.4-43.2 43.2-43.2 43.2 19.4 43.2 43.2-19.4 43.2-43.2 43.2z m0-54.4c-6.2 0-11.2 5-11.2 11.2 0 6.2 5 11.2 11.2 11.2s11.2-5 11.2-11.2c0-6.2-5-11.2-11.2-11.2zM210.5 117l-28.9 8.5-0.9 30.1-17-24.8-28.9 8.5 18.4-23.9-17-24.9 28.4 10.2 18.3-23.9-0.8 30.1zM39.3 695.5l-15 4.4-0.4 15.7-8.9-12.9-15 4.4 9.6-12.4-8.9-12.9 14.8 5.2 9.5-12.4-0.4 15.7z" fill="#8a8a8a" p-id="973"></path><path d="M1008 752.2m-16 0a16 16 0 1 0 32 0 16 16 0 1 0-32 0Z" fill="#8a8a8a" p-id="974"></path></svg>