<?xml version="1.0" standalone="no"?><!DOCTYPE svg PUBLIC "-//W3C//DTD SVG 1.1//EN" "http://www.w3.org/Graphics/SVG/1.1/DTD/svg11.dtd"><svg t="1586923990852" class="icon" viewBox="0 0 1024 1024" version="1.1" xmlns="http://www.w3.org/2000/svg" p-id="1958" xmlns:xlink="http://www.w3.org/1999/xlink" width="32" height="32"><defs><style type="text/css"></style></defs><path d="M597.480884 520.557925l10.820365 18.492988c0.393468 0.786936 0.786936 1.377137 0.983669 2.164073l7.475889 18.296253 5.902017-17.312584 8.459558-20.460326V277.198079c0-9.246494-7.475889-16.919116-16.919116-16.919116-9.246494 0-16.919116 7.672622-16.919116 16.919116v243.359846z" fill="#8a8a8a" p-id="1959"></path><path d="M513.082037 0C231.359078 0 2.951009 228.408069 2.951009 510.131028S231.359078 1020.065322 513.082037 1020.065322 1023.01633 791.853987 1023.01633 510.131028 794.608261 0 513.082037 0z m50.560614 277.198079c0-27.936215 22.6244-50.757349 50.560615-50.757349s50.560615 22.821134 50.560615 50.757349v248.08146c0 2.164073-0.393468 4.328146-1.180404 6.492219l-9.246493 22.6244-6.295485 18.886455v2.951009c0 9.836695-6.295485 18.09952-14.951778 21.247262v18.296253c0 9.246494-7.475889 16.919116-16.919116 16.919117-9.246494 0-16.919116-7.475889-16.919116-16.919117v-18.886455c-7.869356-3.54121-13.181172-11.410567-13.181172-20.460327v-2.360806l-7.475889-18.296254-12.59097-21.443996c-1.573871-2.557541-2.360807-5.508549-2.360807-8.656292V277.198079zM783.000961 683.060134c0 46.625937-37.772911 84.595581-84.398848 84.595582H327.365226c-46.625937 0-84.398847-37.969645-84.398848-84.595582V395.435159c0-46.625937 37.772911-84.595581 84.398848-84.595582h202.635927c9.246494 0 16.919116 7.475889 16.919116 16.919117s-7.475889 16.919116-16.919116 16.919116h-202.635927c-27.936215 0-50.560615 22.821134-50.560615 50.757349v287.428242c0 27.936215 22.6244 50.757349 50.560615 50.757348h371.433621c27.936215 0 50.560615-22.821134 50.560615-50.757348V395.435159c0-27.936215-22.6244-50.757349-50.560615-50.757349-9.246494 0-16.919116-7.475889-16.919116-16.919116s7.475889-16.919116 16.919116-16.919117c46.625937 0 84.398847 37.969645 84.398848 84.595582v287.624975z m-269.918924-118.433813h-151.878579c-9.246494 0-16.919116-7.475889-16.919116-16.919116 0-9.246494 7.475889-16.919116 16.919116-16.919117h151.878579c9.246494 0 16.919116 7.475889 16.919116 16.919117-0.196734 9.443228-7.672622 16.919116-16.919116 16.919116z m16.722382 50.757349c0 9.246494-7.475889 16.919116-16.919116 16.919116h-151.878579c-9.246494 0-16.919116-7.475889-16.919116-16.919116 0-9.246494 7.475889-16.919116 16.919116-16.919117h151.878579c9.443228 0 16.919116 7.475889 16.919116 16.919117zM344.284342 480.03074c0-9.246494 7.475889-16.919116 16.919116-16.919117h84.398847c9.246494 0 16.919116 7.475889 16.919117 16.919117 0 9.246494-7.475889 16.919116-16.919117 16.919116h-84.398847c-9.443228 0-16.919116-7.475889-16.919116-16.919116z" fill="#8a8a8a" p-id="1960"></path></svg>